<svg width="16" height="18" viewBox="0 0 16 18" fill="none" xmlns="http://www.w3.org/2000/svg">
<path fill-rule="evenodd" clip-rule="evenodd" d="M11.7101 1.27931V2.14172C14.2174 2.38497 15.5 3.77072 15.5 6.26213V13.154C15.5 15.9255 13.9203 17.3334 10.8116 17.3334H5.18841C2.07971 17.3334 0.5 15.9255 0.5 13.154V6.26213C0.5 4.60365 1.06522 3.41691 2.22464 2.72403C2.4074 2.59928 2.64386 2.59057 2.83501 2.70155C3.02617 2.81253 3.13906 3.02405 3.12641 3.24757C3.11377 3.47108 2.97777 3.66804 2.77536 3.75598C2.00725 4.21298 1.64493 5.00905 1.64493 6.26213V6.48326H12.2174C12.5336 6.48326 12.7899 6.74397 12.7899 7.06557C12.7899 7.38717 12.5336 7.64788 12.2174 7.64788H1.64493V13.154C1.64493 15.2695 2.67391 16.1467 5.18841 16.1614H10.8116C13.2899 16.1614 14.3478 15.2622 14.3478 13.1467V6.25476C14.3478 4.412 13.5435 3.5201 11.7101 3.30634V3.86654C11.6679 4.16513 11.4109 4.38311 11.1145 4.37174C10.8181 4.36036 10.578 4.1233 10.558 3.82232V1.22771C10.5636 1.0719 10.6304 0.924887 10.7435 0.819592C10.8565 0.714297 11.0063 0.659516 11.1594 0.667516C11.475 0.687257 11.7185 0.957774 11.7101 1.27931ZM5.25731 4.24407C5.14838 4.35349 5.0009 4.41397 4.84783 4.412C4.5345 4.40395 4.28579 4.14111 4.28986 3.82232V1.27931C4.3228 0.980987 4.57082 0.755454 4.86594 0.755454C5.16107 0.755454 5.40908 0.980987 5.44203 1.27931V2.08275H8.71739C9.03355 2.08275 9.28986 2.34346 9.28986 2.66506C9.28986 2.98667 9.03355 3.24738 8.71739 3.24738H5.42754V3.82969C5.42755 3.98541 5.36624 4.13465 5.25731 4.24407ZM11.4928 9.51275C11.0925 9.51275 10.7681 9.84276 10.7681 10.2499C10.7681 10.6569 11.0925 10.987 11.4928 10.987C11.893 10.987 12.2174 10.6569 12.2174 10.2499C12.2174 10.0531 12.1401 9.86447 12.0026 9.72602C11.8651 9.58757 11.6789 9.51078 11.4855 9.51275H11.4928ZM7.28986 10.2499C7.28986 9.84276 7.61429 9.51275 8.01449 9.51275C8.4147 9.51275 8.73913 9.84276 8.73913 10.2499C8.73913 10.6569 8.4147 10.987 8.01449 10.987C7.61429 10.987 7.28986 10.6569 7.28986 10.2499ZM4.54348 9.51275C4.14327 9.51275 3.81884 9.84276 3.81884 10.2499C3.81884 10.6569 4.14327 10.987 4.54348 10.987C4.94368 10.987 5.26812 10.6569 5.26812 10.2499C5.26813 10.0531 5.19079 9.86447 5.05332 9.72602C4.91585 9.58757 4.72967 9.51078 4.53623 9.51275H4.54348ZM10.7681 13.2351C10.7681 12.828 11.0925 12.498 11.4928 12.498H11.4855C11.6789 12.4961 11.8651 12.5728 12.0026 12.7113C12.1401 12.8497 12.2174 13.0383 12.2174 13.2351C12.2174 13.6422 11.893 13.9722 11.4928 13.9722C11.0925 13.9722 10.7681 13.6422 10.7681 13.2351ZM8.01449 12.498C7.61429 12.498 7.28986 12.828 7.28986 13.2351C7.28986 13.6422 7.61429 13.9722 8.01449 13.9722C8.4147 13.9722 8.73913 13.6422 8.73913 13.2351C8.73913 12.828 8.4147 12.498 8.01449 12.498ZM3.81884 13.2351C3.81884 12.828 4.14327 12.498 4.54348 12.498H4.53623C4.72967 12.4961 4.91585 12.5728 5.05332 12.7113C5.19079 12.8497 5.26813 13.0383 5.26812 13.2351C5.26812 13.6422 4.94368 13.9722 4.54348 13.9722C4.14327 13.9722 3.81884 13.6422 3.81884 13.2351Z" fill="#407BFF"/>
</svg>
