<svg width="24" height="28" viewBox="0 0 24 28" fill="none" xmlns="http://www.w3.org/2000/svg">
<path fill-rule="evenodd" clip-rule="evenodd" d="M6.85051 0.666748H17.1379C21.4224 0.666748 23.9884 3.26866 24 7.61303V20.3871C24 24.7315 21.4456 27.3334 17.1495 27.3334H13.3411C12.8527 27.2788 12.483 26.8604 12.483 26.3621C12.483 25.8639 12.8527 25.4454 13.3411 25.3908H17.1379C20.4122 25.3908 22.061 23.7072 22.061 20.3871V7.61303C22.061 4.29294 20.4122 2.60935 17.1379 2.60935H6.85051C3.5762 2.60935 1.91582 4.29294 1.91582 7.61303V20.3871C1.91582 23.7072 3.5762 25.3908 6.85051 25.3908C7.33892 25.4454 7.7086 25.8639 7.7086 26.3621C7.7086 26.8604 7.33892 27.2788 6.85051 27.3334C2.56604 27.3334 0 24.7315 0 20.3871V7.61303C0 3.25689 2.56604 0.666748 6.85051 0.666748ZM7.18723 9.33194H10.8447C11.3331 9.27734 11.7028 8.85888 11.7028 8.36064C11.7028 7.8624 11.3331 7.44394 10.8447 7.38934H7.18723C6.69882 7.44394 6.32913 7.8624 6.32913 8.36064C6.32913 8.85888 6.69882 9.27734 7.18723 9.33194ZM16.7895 14.9714H7.18723H7.17562C6.68721 14.9168 6.31752 14.4983 6.31752 14.0001C6.31752 13.5018 6.68721 13.0834 7.17562 13.0288H16.7895C17.157 12.9877 17.5152 13.1633 17.7116 13.4808C17.908 13.7984 17.908 14.2018 17.7116 14.5193C17.5152 14.8368 17.157 15.0125 16.7895 14.9714ZM16.7896 20.6108H7.18723H7.17562C6.64978 20.6108 6.22351 20.1786 6.22351 19.6454C6.22351 19.1122 6.64978 18.68 7.17562 18.68H16.7896C17.3154 18.68 17.7417 19.1122 17.7417 19.6454C17.7417 20.1786 17.3154 20.6108 16.7896 20.6108Z" fill="#788098"/>
</svg>
