<svg width="33" height="33" viewBox="0 0 33 33" fill="none" xmlns="http://www.w3.org/2000/svg">
<path d="M11.8959 19.6064C11.8959 21.3264 13.2159 22.713 14.8559 22.713H18.2025C19.6292 22.713 20.7892 21.4997 20.7892 20.0064C20.7892 18.3797 20.0825 17.8064 19.0292 17.433L13.6559 15.5664C12.6025 15.193 11.8959 14.6197 11.8959 12.993C11.8959 11.4997 13.0559 10.2864 14.4825 10.2864H17.8292C19.4692 10.2864 20.7892 11.673 20.7892 13.393" stroke="#407BFF" stroke-width="2" stroke-linecap="round" stroke-linejoin="round"/>
<path d="M16.3334 8.5V24.5" stroke="#407BFF" stroke-width="2" stroke-linecap="round" stroke-linejoin="round"/>
<path d="M20.3334 29.8334H12.3334C5.66673 29.8334 3.00006 27.1667 3.00006 20.5001V12.5001C3.00006 5.83341 5.66673 3.16675 12.3334 3.16675H20.3334C27.0001 3.16675 29.6667 5.83341 29.6667 12.5001V20.5001C29.6667 27.1667 27.0001 29.8334 20.3334 29.8334Z" stroke="#407BFF" stroke-width="2" stroke-linecap="round" stroke-linejoin="round"/>
</svg>
