<svg width="21" height="20" viewBox="0 0 21 20" fill="none" xmlns="http://www.w3.org/2000/svg">
<path fill-rule="evenodd" clip-rule="evenodd" d="M20.8002 8.8219C20.8002 9.2389 20.4612 9.5779 20.0442 9.5779H20.0352V9.5599C19.6132 9.5599 19.2712 9.2189 19.2702 8.7969V8.7949V6.2529C19.2702 3.1999 17.6002 1.5299 14.5562 1.5299H7.05617C4.01017 1.5299 2.33017 3.2099 2.33017 6.2529V13.7529C2.33017 16.7869 4.01017 18.4669 7.05317 18.4669H14.5532C17.5962 18.4669 19.2672 16.7869 19.2672 13.7529C19.2672 13.3309 19.6092 12.9879 20.0322 12.9879C20.4552 12.9879 20.7972 13.3309 20.7972 13.7529C20.8002 17.6079 18.4082 19.9999 14.5562 19.9999H7.05317C3.19217 19.9999 0.800171 17.6079 0.800171 13.7559V6.2559C0.800171 2.3919 3.19217 -9.91821e-05 7.05317 -9.91821e-05H14.5532C18.3902 -9.91821e-05 20.8002 2.3919 20.8002 6.2529V8.8219ZM9.61377 11.3134L13.8298 7.0964C14.1228 6.8034 14.5978 6.8034 14.8908 7.0964C15.1838 7.3894 15.1838 7.8644 14.8908 8.1574L10.1438 12.9044C10.0028 13.0444 9.81177 13.1234 9.61377 13.1234C9.41377 13.1234 9.22377 13.0444 9.08277 12.9044L6.70977 10.5304C6.41677 10.2374 6.41677 9.7624 6.70977 9.4694C7.00277 9.1764 7.47777 9.1764 7.77077 9.4694L9.61377 11.3134Z" fill="#15CC93"/>
</svg>
