<svg width="26" height="28" viewBox="0 0 26 28" fill="none" xmlns="http://www.w3.org/2000/svg">
<path fill-rule="evenodd" clip-rule="evenodd" d="M23.8695 8.12174C24.8188 8.88527 25.3761 10.034 25.3883 11.2522L25.3767 21.8841C25.3767 24.7719 23.0356 27.113 20.1477 27.113H17.8289C16.4311 27.1131 15.2962 25.9833 15.2898 24.5855V19.7855C15.2898 19.4141 14.9887 19.113 14.6173 19.113H11.139C10.9587 19.113 10.7858 19.1855 10.6594 19.3141C10.5329 19.4427 10.4635 19.6168 10.4666 19.7971V21.629C10.4666 22.2053 9.9994 22.6725 9.42311 22.6725C8.84681 22.6725 8.37963 22.2053 8.37963 21.629V19.7971C8.37963 19.0622 8.67157 18.3574 9.19124 17.8377C9.71091 17.318 10.4157 17.0261 11.1506 17.0261H14.6289C16.1548 17.0325 17.3883 18.2712 17.3883 19.7971V24.5855C17.3883 24.8288 17.5856 25.0261 17.8289 25.0261H20.2057C21.9346 25.0261 23.3362 23.6245 23.3362 21.8957V11.2754C23.3277 10.687 23.0552 10.1336 22.5941 9.76811L14.5825 3.37971C13.5723 2.54798 12.1145 2.54798 11.1043 3.37971L8.53035 5.30435C8.05331 5.64692 7.38887 5.53791 7.0463 5.06087C6.70372 4.58382 6.81273 3.91939 7.28977 3.57681L9.82891 1.73333C11.5894 0.318188 14.0974 0.318188 15.8579 1.73333L23.8695 8.12174ZM5.56224 25.0145H10.8956V25.0377C11.4719 25.0377 11.939 25.5049 11.939 26.0812C11.939 26.6575 11.4719 27.1246 10.8956 27.1246H5.56224C2.67699 27.1183 0.339628 24.7809 0.333252 21.8957V11.2754C0.351699 10.0481 0.927753 8.89602 1.89847 8.14493L2.86079 7.42608C3.31395 7.21246 3.85497 7.35103 4.14964 7.7562C4.4443 8.16136 4.40944 8.71876 4.06659 9.08406L3.12745 9.77971C2.68247 10.1494 2.4236 10.6968 2.42021 11.2754V21.8841C2.4329 23.6122 3.83408 25.0082 5.56224 25.0145Z" fill="#788098"/>
</svg>
