<svg width="28" height="26" viewBox="0 0 28 26" fill="none" xmlns="http://www.w3.org/2000/svg">
<path fill-rule="evenodd" clip-rule="evenodd" d="M25.3333 15.5986C25.3333 16.1369 25.7813 16.574 26.3332 16.574C26.8851 16.574 27.3331 16.1369 27.3331 15.5986V5.95253C27.3331 2.85414 24.7489 0.333374 21.5713 0.333374H15.2434C12.0593 0.333374 9.46865 2.86048 9.46865 5.96647V7.14578C9.46865 7.68287 9.91665 8.11989 10.4685 8.11989C11.0204 8.11989 11.4684 7.68287 11.4684 7.14578V5.96647C11.4684 3.93465 13.1618 2.28412 15.2434 2.28412H21.5713C23.6464 2.28412 25.3333 3.93085 25.3333 5.95253V15.5986ZM11.4686 18.8556C11.4686 18.3172 11.0206 17.8802 10.4687 17.8802C9.91685 17.8802 9.46884 18.3172 9.46884 18.8556V20.0475C9.46884 23.1459 12.053 25.6667 15.2306 25.6667H21.5598C24.7426 25.6667 27.3333 23.1396 27.3333 20.0336C27.3333 19.4953 26.8852 19.0595 26.3334 19.0595C25.7815 19.0595 25.3335 19.4953 25.3335 20.0336C25.3335 22.0654 23.6401 23.716 21.5598 23.716H15.2306C13.1555 23.716 11.4686 22.0705 11.4686 20.0475V18.8556ZM0.742201 12.6279C0.89673 12.2618 1.26163 12.0237 1.66678 12.0237H17.2678C17.8197 12.0237 18.269 12.4619 18.269 13.0003C18.269 13.5386 17.8197 13.9757 17.2678 13.9757H4.08731L6.16632 15.9948C6.55849 16.3748 6.55849 16.9917 6.16892 17.3743C5.97413 17.5655 5.71702 17.6618 5.4612 17.6618C5.20538 17.6618 4.95086 17.5655 4.75478 17.3768L0.960361 13.6919C0.674675 13.4132 0.587671 12.9927 0.742201 12.6279ZM4.50415 11.2143C4.75867 11.2143 5.01319 11.1193 5.20798 10.9319L6.16502 10.0084C6.55719 9.62969 6.55979 9.01153 6.17152 8.63025C5.78195 8.24516 5.15084 8.24263 4.75738 8.62265L3.80163 9.54482C3.40816 9.92483 3.40557 10.5417 3.79384 10.9243C3.98992 11.1168 4.24704 11.2143 4.50415 11.2143Z" fill="#363C4F"/>
</svg>
