<svg width="22" height="27" viewBox="0 0 22 27" fill="none" xmlns="http://www.w3.org/2000/svg">
<path fill-rule="evenodd" clip-rule="evenodd" d="M5.74453 7.30524C5.74453 4.42531 8.10193 2.0827 11 2.0827C13.8982 2.0827 16.2556 4.42531 16.2556 7.30524C16.2556 10.1838 13.8982 12.5264 11 12.5264C8.10193 12.5264 5.74453 10.1838 5.74453 7.30524ZM3.81648 7.30524C3.81648 11.2398 7.03929 14.4424 11 14.4424C14.9608 14.4424 18.1823 11.2398 18.1823 7.30524C18.1823 3.36933 14.9608 0.166748 11 0.166748C7.03929 0.166748 3.81648 3.36933 3.81648 7.30524ZM9.63685 26.8134C10.0836 26.8267 10.5385 26.8334 11 26.8334C15.5793 26.8334 21.6667 26.3254 21.6667 21.9402C21.6667 17.019 13.6379 17.019 11 17.019C6.42075 17.019 0.333374 17.527 0.333374 21.9135C0.333374 23.2268 0.947881 24.9988 3.87551 25.9841C4.38134 26.1574 4.92608 25.8841 5.09782 25.3841C5.26822 24.8841 4.99853 24.3415 4.49404 24.1721C2.49086 23.4975 2.26008 22.5602 2.26008 21.9135C2.26008 19.9363 5.20113 18.9336 11 18.9336C16.799 18.9336 19.74 19.9456 19.74 21.9402C19.74 23.9162 16.799 24.9175 11 24.9175C10.5573 24.9175 10.1212 24.9121 9.69186 24.9001C9.17664 24.9041 8.71778 25.3015 8.70302 25.8294C8.68692 26.3588 9.10553 26.8001 9.63685 26.8134Z" fill="#407BFF"/>
</svg>
