<svg width="21" height="20" viewBox="0 0 21 20" fill="none" xmlns="http://www.w3.org/2000/svg">
<path fill-rule="evenodd" clip-rule="evenodd" d="M20.0443 9.57789C20.4613 9.57789 20.8003 9.23889 20.8003 8.82189V6.25289C20.8003 2.39189 18.3903 -0.000106812 14.5533 -0.000106812H7.05329C3.19229 -0.000106812 0.800293 2.39189 0.800293 6.25589V13.7559C0.800293 17.6079 3.19229 19.9999 7.05329 19.9999H14.5563C18.4083 19.9999 20.8003 17.6079 20.7973 13.7529C20.7973 13.3309 20.4543 12.9879 20.0323 12.9879C19.6093 12.9879 19.2673 13.3309 19.2673 13.7529C19.2673 16.7869 17.5963 18.4669 14.5533 18.4669H7.05329C4.01029 18.4669 2.33029 16.7869 2.33029 13.7529V6.25289C2.33029 3.20989 4.01029 1.52989 7.05629 1.52989H14.5563C17.6003 1.52989 19.2703 3.19989 19.2703 6.25289V8.79489V8.79689C19.2713 9.21889 19.6133 9.55989 20.0353 9.55989V9.57789H20.0443ZM8.61509 11.1453L7.93109 11.8293C7.62609 12.1193 7.60909 12.6003 7.89309 12.9113L7.91509 12.9273C8.20709 13.2193 8.67709 13.2273 8.97809 12.9453L9.65909 12.2643C9.96809 11.9763 9.98509 11.4923 9.69709 11.1823C9.40809 10.8743 8.92409 10.8563 8.61509 11.1453ZM13.9429 12.8032C13.6489 13.0962 13.1739 13.1022 12.8729 12.8152L12.8349 12.7782L8.05489 7.99919C7.76289 7.68919 7.75689 7.20719 8.04189 6.89119C8.33389 6.59219 8.81189 6.58619 9.11089 6.87819C9.11389 6.88019 9.11589 6.88219 9.11889 6.88519L10.9839 8.75119L12.6809 7.05319C12.9859 6.76219 13.4669 6.76519 13.7689 7.06019C13.8229 7.11419 13.8689 7.17519 13.9039 7.24319C14.0769 7.54419 14.0269 7.92219 13.7819 8.16819L12.0919 9.85719L13.9299 11.6962C14.2399 11.9892 14.2519 12.4782 13.9579 12.7872C13.9556 12.7906 13.9527 12.7934 13.9497 12.7962C13.9474 12.7984 13.945 12.8006 13.9429 12.8032Z" fill="#FF5037"/>
</svg>
