<svg width="32" height="34" viewBox="0 0 32 34" fill="none" xmlns="http://www.w3.org/2000/svg">
<path fill-rule="evenodd" clip-rule="evenodd" d="M10.903 8.45737C9.5309 9.21784 7.84785 9.20691 6.48623 8.4287L6.42627 8.37014C5.81359 7.99823 5.62567 7.21173 6.00652 6.61345C6.38737 6.01516 7.19278 5.83164 7.80545 6.20355C8.07892 6.35938 8.38838 6.445 8.70491 6.45241C9.19008 6.47223 9.6634 6.30282 10.0205 5.98153C10.3777 5.66024 10.5893 5.21344 10.6088 4.73963C10.5996 2.359 12.5344 0.404655 14.9712 0.333252H17.025C19.5088 0.333252 21.5223 2.2995 21.5223 4.725C21.5183 5.03372 21.6012 5.33758 21.7622 5.60334C22.0009 6.01479 22.3983 6.31592 22.8657 6.43965C23.3331 6.56339 23.8318 6.49946 24.2507 6.26211C26.3611 5.14022 29.0018 5.83647 30.2471 7.84313C30.5913 8.45551 30.3797 9.22398 29.7674 9.58519C29.1452 9.93205 28.3533 9.73059 27.9835 9.13138C27.4754 8.28637 26.3649 7.99895 25.4949 8.48726C24.1183 9.22337 22.4483 9.2054 21.0886 8.43983C19.7289 7.67427 18.8762 6.27187 18.8389 4.73963C18.8552 4.25979 18.6712 3.79405 18.3293 3.44908C17.9873 3.10412 17.5166 2.90948 17.025 2.90974H14.9712C14.4782 2.9096 14.0061 3.10378 13.6618 3.44827C13.3175 3.79277 13.1302 4.2584 13.1423 4.73963C13.1284 6.28022 12.2751 7.6969 10.903 8.45737ZM13.1423 29.3188C13.1505 30.2994 13.9669 31.0901 14.9712 31.0901L14.9562 31.1194C15.4222 31.1194 15.8527 31.3621 16.0857 31.7562C16.3187 32.1502 16.3187 32.6357 16.0857 33.0298C15.8527 33.4238 15.4222 33.6666 14.9562 33.6666C12.4724 33.6666 10.4589 31.7003 10.4589 29.2748C10.4629 28.9661 10.3799 28.6623 10.219 28.3965C9.71603 27.5462 8.6044 27.2519 7.73049 27.7377C5.62011 28.8596 2.97941 28.1634 1.73405 26.1567L0.714657 24.4146C-0.434202 22.3538 0.278787 19.7751 2.3337 18.559C2.60606 18.4025 2.83307 18.1808 2.9933 17.9149C3.29396 17.5056 3.40201 16.9908 3.29043 16.4991C3.17885 16.0074 2.85819 15.5853 2.40865 15.3384C0.353743 14.1223 -0.359247 11.5435 0.789612 9.48272C0.981844 9.20052 1.28134 9.00478 1.62178 8.93884C1.96223 8.8729 2.31556 8.94219 2.60354 9.13138C3.17241 9.50912 3.33735 10.2565 2.97831 10.8295C2.48214 11.6785 2.78405 12.7595 3.65291 13.245C4.30571 13.6356 4.84304 14.1855 5.21199 14.8406C6.36085 16.9015 5.64786 19.4802 3.59295 20.6963C2.72408 21.1818 2.42217 22.2628 2.91835 23.1118L3.95273 24.8538C4.18809 25.269 4.58668 25.5724 5.05638 25.6939C5.52607 25.8155 6.02623 25.7447 6.44126 25.4979C7.11045 25.1189 7.87136 24.9218 8.64495 24.927C11.1288 24.927 13.1423 26.8933 13.1423 29.3188ZM29.6475 18.5443C29.2287 18.3087 28.9235 17.9196 28.7997 17.4634C28.6758 17.0071 28.7436 16.5215 28.9879 16.1143C29.1481 15.8483 29.3751 15.6266 29.6475 15.4701C30.2627 15.1092 30.4637 14.3307 30.0972 13.7281C29.733 13.1332 28.9556 12.9209 28.3283 13.245C26.2734 14.4611 25.5604 17.0398 26.7092 19.1006C27.0742 19.8206 27.6408 20.4247 28.3433 20.8427C28.761 21.0755 29.066 21.462 29.1899 21.9158C29.3138 22.3697 29.2465 22.8531 29.0029 23.2582L27.9835 25.0002C27.738 25.4079 27.3404 25.7069 26.8741 25.8346C26.407 25.9563 25.9093 25.8877 25.4949 25.6443C24.116 24.9071 22.4429 24.9266 21.0823 25.6956C19.7217 26.4647 18.8711 27.8717 18.8389 29.4066C18.9107 30.0612 19.4764 30.5577 20.1506 30.5577C20.8248 30.5577 21.3906 30.0612 21.4623 29.4066C21.4499 28.767 21.7946 28.1714 22.362 27.8517C22.9294 27.5321 23.6299 27.5389 24.1907 27.8695C26.3011 28.9914 28.9418 28.2951 30.1872 26.2885L31.2066 24.5464C32.4653 22.4674 31.7688 19.7861 29.6475 18.5443ZM15.9906 11.5029C13.7094 11.5029 11.6531 12.8456 10.7816 14.9042C9.91002 16.9628 10.395 19.3315 12.0102 20.9045C13.6254 22.4776 16.0523 22.9449 18.1581 22.0883C20.2638 21.2318 21.6333 19.2202 21.6272 16.9926C21.6272 15.5341 21.0329 14.1355 19.9754 13.1056C18.9179 12.0757 17.4841 11.499 15.9906 11.5029ZM15.9906 19.9351C14.3347 19.9351 12.9924 18.6242 12.9924 17.0072C12.9924 15.3902 14.3347 14.0794 15.9906 14.0794C17.6465 14.0794 18.9888 15.3902 18.9888 17.0072C18.9888 18.6242 17.6465 19.9351 15.9906 19.9351Z" fill="white"/>
</svg>
