<svg width="27" height="27" viewBox="0 0 27 27" fill="none" xmlns="http://www.w3.org/2000/svg">
<path fill-rule="evenodd" clip-rule="evenodd" d="M8.04653 0.833252H19.2856C23.5393 0.833252 27 4.37296 27 8.72513V18.2747C27 22.6269 23.5393 26.1666 19.2856 26.1666C18.795 26.1666 18.3968 25.7591 18.3968 25.2571C18.3968 24.7551 18.795 24.3476 19.2856 24.3476C22.5591 24.3476 25.2222 21.624 25.2222 18.2747V10.6532H20.8442C19.4065 10.6545 18.2344 11.8525 18.2332 13.3247C18.2344 14.7968 19.4065 15.9949 20.8442 15.9961H22.6634C23.1541 15.9961 23.5523 16.4036 23.5523 16.9056C23.5523 17.4077 23.1541 17.8151 22.6634 17.8151H20.8442C18.4252 17.8139 16.4566 15.7997 16.4554 13.3247C16.4566 10.8497 18.4252 8.83549 20.8442 8.83427H25.2222V8.72513C25.2222 5.37581 22.5591 2.65222 19.2856 2.65222H8.04653C5.40831 2.65222 3.19438 4.43238 2.42283 6.871H14.1396C14.6302 6.871 15.0285 7.27845 15.0285 7.78049C15.0285 8.28373 14.6302 8.68997 14.1396 8.68997H2.11468C2.11468 8.69603 2.11379 8.70179 2.1129 8.70755C2.11201 8.71331 2.11112 8.71907 2.11112 8.72513V18.2747C2.11112 21.624 4.77305 24.3476 8.04653 24.3476H13.701C14.1917 24.3476 14.5899 24.7551 14.5899 25.2571C14.5899 25.7591 14.1917 26.1666 13.701 26.1666H8.04653C3.7929 26.1666 0.333344 22.6269 0.333344 18.2747V8.72513C0.333344 4.37296 3.7929 0.833252 8.04653 0.833252ZM20.148 13.2427C20.148 12.7407 20.5462 12.3332 21.0369 12.3332H21.441C21.9317 12.3332 22.3299 12.7407 22.3299 13.2427C22.3299 13.7448 21.9317 14.1522 21.441 14.1522H21.0369C20.5462 14.1522 20.148 13.7448 20.148 13.2427Z" fill="#407BFF"/>
</svg>
